<svg width="54" height="40" viewBox="0 0 54 40" fill="none" xmlns="http://www.w3.org/2000/svg">
<path d="M3.70826 26.591L10.8708 35.4027C10.8752 35.4082 10.88 35.4132 10.8844 35.4186C10.8888 35.4241 10.8941 35.4314 10.8992 35.4377C12.9893 38.0089 15.7449 39.5995 18.6881 39.9339C21.6314 40.2684 24.5769 39.3256 27.0146 37.269C29.4523 39.3256 32.3978 40.2684 35.3411 39.9339C38.2844 39.5995 41.0398 38.0089 43.13 35.4377L50.2925 26.6262C52.5241 23.8801 53.8415 20.2076 53.9866 16.3287C54.1317 12.4497 53.0939 8.64383 51.0767 5.65717C49.0595 2.67071 46.2084 0.718559 43.0822 0.183715C39.9559 -0.351129 36.78 0.569662 34.177 2.76579C32.0693 0.987654 29.5737 0.0356615 27.0182 0.0346122C24.4625 0.0337727 21.9666 0.984094 19.8581 2.76076C17.2581 0.551026 14.0805 -0.382545 10.9494 0.143086C7.8184 0.668922 4.96041 2.61584 2.93666 5.60188C0.913085 8.58791 -0.129682 12.3969 0.0129606 16.2805C0.155775 20.1643 1.47379 23.8419 3.70826 26.591ZM38.0663 7.17835C39.6832 6.22824 41.5211 6.01212 43.2551 6.56791C44.9891 7.12348 46.5076 8.41557 47.5422 10.2155C48.5767 12.0154 49.0608 14.2071 48.9089 16.4037C48.7569 18.6002 47.9787 20.66 46.7118 22.2189L39.5494 31.0306C38.4377 32.3965 37.0096 33.3055 35.4611 33.6328C33.9126 33.9601 32.3197 33.6896 30.9012 32.8586L35.9677 26.6262C37.9106 24.2483 39.1684 21.1542 39.5494 17.8153C39.6333 17.0853 39.6757 16.349 39.6761 15.6117C39.6811 12.6968 39.0167 9.83958 37.7594 7.36891C37.8609 7.30232 37.9632 7.23908 38.0663 7.17898L38.0663 7.17835ZM21.6428 9.00234C23.0691 7.25918 24.9989 6.28289 27.0093 6.28687C29.0198 6.29106 30.9469 7.27551 32.3685 9.02433C33.79 10.7734 34.5903 13.1441 34.5937 15.6175C34.5969 18.0909 33.8033 20.4649 32.3864 22.2197L27.0146 28.8284L21.6428 22.2197C20.2206 20.4656 19.4219 18.0892 19.4219 15.6117C19.4219 13.1343 20.2206 10.7579 21.6428 9.00381L21.6428 9.00234ZM7.28952 8.96737C8.4065 7.59676 9.84214 6.68727 11.3978 6.36456C12.9534 6.04186 14.5521 6.32205 15.9726 7.16641C16.0747 7.22693 16.1759 7.29038 16.2758 7.35677C15.0146 9.83015 14.348 12.692 14.3531 15.6117C14.3537 16.349 14.3959 17.0853 14.4798 17.8153C14.8607 21.1542 16.1187 24.2483 18.0616 26.6262L23.097 32.8209L23.1254 32.8558C21.7077 33.6865 20.1156 33.9572 18.5678 33.6307C17.02 33.3041 15.5923 32.3964 14.4805 31.0321C14.4754 31.0258 14.4706 31.0191 14.4657 31.0128C14.4607 31.0065 14.4565 31.0023 14.452 30.9969L7.32306 22.2264L7.28901 22.1845C5.86444 20.4317 5.06407 18.0545 5.06407 15.5758C5.06407 13.0972 5.86444 10.72 7.28901 8.96716L7.28952 8.96737Z" fill="#0077C0"/>
</svg>
